<?xml version="1.0" standalone="no"?><!DOCTYPE svg PUBLIC "-//W3C//DTD SVG 1.1//EN" "http://www.w3.org/Graphics/SVG/1.1/DTD/svg11.dtd"><svg t="1599802104702" class="icon" viewBox="0 0 1024 1024" version="1.1" xmlns="http://www.w3.org/2000/svg" p-id="5116" xmlns:xlink="http://www.w3.org/1999/xlink" width="200" height="200"><defs><style type="text/css"></style></defs><path d="M505.2 595.3c0 4.5-1.8 8.5-5.3 11.9L327 780.2l75 75c6.6 6.6 9.9 14.4 9.9 23.4 0 9-3.3 16.9-9.9 23.4-6.6 6.6-14.5 9.9-23.4 9.9H145.3c-9 0-16.9-3.3-23.4-9.9-6.6-6.6-9.9-14.5-9.9-23.4V645.4c0-9 3.3-16.9 9.9-23.4 6.6-6.6 14.4-9.9 23.4-9.9 9 0 16.9 3.3 23.4 9.9l75 75 172.9-173c3.5-3.5 7.4-5.3 11.9-5.3s8.5 1.8 11.9 5.3l59.4 59.4c3.6 3.5 5.4 7.4 5.4 11.9z m406.8-450v233.3c0 9-3.3 16.9-9.9 23.4-6.6 6.6-14.5 9.9-23.4 9.9-9 0-16.9-3.3-23.4-9.9l-75-75-173 173c-3.5 3.5-7.4 5.3-11.9 5.3s-8.5-1.8-11.9-5.3L524 440.6c-3.5-3.5-5.3-7.4-5.3-11.9s1.8-8.5 5.3-11.9l173-173-75-75c-6.6-6.6-9.9-14.4-9.9-23.4 0-9 3.3-16.9 9.9-23.4 6.6-6.6 14.4-9.9 23.4-9.9h233.3c9 0 16.9 3.3 23.4 9.9 6.5 6.4 9.9 14.3 9.9 23.3z" p-id="5117"></path></svg>